HIERARCHY
ROOT Hips
{
	OFFSET 0.000000 0.000000 0.000000
	CHANNELS 6 Xposition Yposition Zposition Zrotation Yrotation Xrotation 
	JOINT LHipJoint
	{
		OFFSET 0.000000 0.000000 0.000000
		CHANNELS 3 Zrotation Yrotation Xrotation
		JOINT LeftUpLeg
		{
			OFFSET 1.363060 -1.794630 0.839290
			CHANNELS 3 Zrotation Yrotation Xrotation
			JOINT LeftLeg
			{
				OFFSET 2.448110 -6.726130 0.000000
				CHANNELS 3 Zrotation Yrotation Xrotation
				JOINT LeftFoot
				{
					OFFSET 2.562200 -7.039590 0.000000
					CHANNELS 3 Zrotation Yrotation Xrotation
					JOINT LeftToeBase
					{
						OFFSET 0.157640 -0.433110 2.322550
						CHANNELS 3 Zrotation Yrotation Xrotation
						End Site
						{
							OFFSET 0.000000 0.000000 0.000000
						}
					}
				}
			}
		}
	}
	JOINT RHipJoint
	{
		OFFSET 0.000000 0.000000 0.000000
		CHANNELS 3 Zrotation Yrotation Xrotation
		JOINT RightUpLeg
		{
			OFFSET -1.305520 -1.794630 0.839290
			CHANNELS 3 Zrotation Yrotation Xrotation
			JOINT RightLeg
			{
				OFFSET -2.542530 -6.985550 0.000000
				CHANNELS 3 Zrotation Yrotation Xrotation
				JOINT RightFoot
				{
					OFFSET -2.568260 -7.056230 0.000000
					CHANNELS 3 Zrotation Yrotation Xrotation
					JOINT RightToeBase
					{
						OFFSET -0.164730 -0.452590 2.363150
						CHANNELS 3 Zrotation Yrotation Xrotation
						End Site
						{
							OFFSET 0.000000 0.000000 0.000000
						}
					}
				}
			}
		}
	}
	JOINT LowerBack
	{
		OFFSET 0.000000 0.000000 0.000000
		CHANNELS 3 Zrotation Yrotation Xrotation
		JOINT Spine
		{
			OFFSET 0.028270 2.035590 -0.193380
			CHANNELS 3 Zrotation Yrotation Xrotation
			JOINT Spine1
			{
				OFFSET 0.056720 2.048850 -0.042750
				CHANNELS 3 Zrotation Yrotation Xrotation
				JOINT Neck
				{
					OFFSET 0.000000 0.000000 0.000000
					CHANNELS 3 Zrotation Yrotation Xrotation
					JOINT Neck1
					{
						OFFSET -0.054170 1.746240 0.172020
						CHANNELS 3 Zrotation Yrotation Xrotation
						JOINT Head
						{
							OFFSET 0.104070 1.761360 -0.123970
							CHANNELS 3 Zrotation Yrotation Xrotation
							End Site
							{
								OFFSET 0.000000 0.000000 0.000000
							}
						}
					}
				}
				JOINT LeftShoulder
				{
					OFFSET 0.000000 0.000000 0.000000
					CHANNELS 3 Zrotation Yrotation Xrotation
					JOINT LeftArm
					{
						OFFSET 3.362410 1.200890 -0.311210
						CHANNELS 3 Zrotation Yrotation Xrotation
						JOINT LeftForeArm
						{
							OFFSET 4.983000 -0.000000 -0.000000
							CHANNELS 3 Zrotation Yrotation Xrotation
							JOINT LeftHand
							{
								OFFSET 3.483560 -0.000000 -0.000000
								CHANNELS 3 Zrotation Yrotation Xrotation
								JOINT LeftFingerBase
								{
									OFFSET 0.000000 0.000000 0.000000
									CHANNELS 3 Zrotation Yrotation Xrotation
									JOINT LeftHandIndex1
									{
										OFFSET 0.715260 -0.000000 -0.000000
										CHANNELS 3 Zrotation Yrotation Xrotation
										End Site
										{
											OFFSET 0.000000 0.000000 0.000000
										}
									}
								}
								JOINT LThumb
								{
									OFFSET 0.000000 0.000000 0.000000
									CHANNELS 3 Zrotation Yrotation Xrotation
									End Site
									{
										OFFSET 0.000000 0.000000 0.000000
									}
								}
							}
						}
					}
				}
				JOINT RightShoulder
				{
					OFFSET 0.000000 0.000000 0.000000
					CHANNELS 3 Zrotation Yrotation Xrotation
					JOINT RightArm
					{
						OFFSET -3.136600 1.374050 -0.404650
						CHANNELS 3 Zrotation Yrotation Xrotation
						JOINT RightForeArm
						{
							OFFSET -5.241900 -0.000000 -0.000000
							CHANNELS 3 Zrotation Yrotation Xrotation
							JOINT RightHand
							{
								OFFSET -3.444170 -0.000000 -0.000000
								CHANNELS 3 Zrotation Yrotation Xrotation
								JOINT RightFingerBase
								{
									OFFSET 0.000000 0.000000 0.000000
									CHANNELS 3 Zrotation Yrotation Xrotation
									JOINT RightHandIndex1
									{
										OFFSET -0.622530 -0.000000 -0.000000
										CHANNELS 3 Zrotation Yrotation Xrotation
										End Site
										{
											OFFSET 0.000000 0.000000 0.000000
										}
									}
								}
								JOINT RThumb
								{
									OFFSET 0.000000 0.000000 0.000000
									CHANNELS 3 Zrotation Yrotation Xrotation
									End Site
									{
										OFFSET 0.000000 0.000000 0.000000
									}
								}
							}
						}
					}
				}
			}
		}
	}
}
MOTION
Frames: 11
Frame Time: 0.008333
-10.952655 16.918104 -1.958031 -18.740769 82.480202 -4.487959 -9.048901 1.169619 3.672163 -16.468767 -3.414773 -37.162323 -2.872967 -0.512857 13.745239 1.094439 4.563047 -6.223035 0.371400 -0.000000 -24.623000 10.984380 -3.064438 -2.096778 3.116403 -14.637763 -11.747466 0.064409 -2.886210 44.304774 0.131727 11.232443 18.658482 4.842000 -0.000000 -84.954500 0.373026 0.111049 -1.958277 -0.972283 -0.060278 -3.497761 -7.385659 -0.178154 0.286189 10.747064 -2.417261 -5.890085 -4.276569 -0.343103 0.425234 0.000000 0.000000 0.000000 -5.613453 9.668256 2.155958 -68.365598 8.606802 8.098697 -3.519798 -19.840114 -0.005928 -1.109349 4.582713 -0.041935 -0.067389 -0.034838 -0.000000 0.000000 0.000000 0.000000 0.000000 0.000000 0.000000 19.036084 1.988649 0.918394 63.505944 16.052608 6.475714 2.787300 36.078325 0.013402 0.700779 8.435743 0.048915 0.064428 -0.176905 -0.000000 0.000000 0.000000 0.000000 0.000000 0.000000 0.000000 
-10.716773 16.896115 -1.949507 -14.794903 82.483283 -0.673535 -9.107672 1.254991 3.760555 -16.702612 -4.158078 -36.956195 -2.762610 -0.305211 15.513254 1.152160 4.960597 -6.065107 0.406100 0.000000 -21.716900 11.083756 -2.815137 -2.157683 2.325006 -14.926778 -13.863657 -0.269260 -3.048405 48.403080 -0.134872 9.961721 20.254992 4.687800 0.000000 -81.953700 -0.336511 -0.030927 -2.069120 -1.106683 -0.159209 -3.511812 -7.440841 -0.281927 0.294680 10.992558 -2.557476 -5.892930 -4.290885 -0.344410 0.424516 0.000000 0.000000 0.000000 -5.334764 9.566410 2.130782 -68.269695 8.779686 8.632772 -3.539428 -20.465697 -0.006289 -1.376667 4.635648 -0.053332 -0.068625 -0.036688 -0.000000 0.000000 0.000000 0.000000 0.000000 0.000000 0.000000 19.395854 1.774395 0.890431 63.918193 15.664548 6.422321 2.803223 35.652278 0.013593 0.884725 8.368317 0.062310 0.062879 -0.172918 -0.000000 0.000000 0.000000 0.000000 0.000000 0.000000 0.000000 
-10.485149 16.876093 -1.939469 -10.530823 82.503050 3.513563 -9.165112 1.314976 3.808448 -17.079833 -4.744750 -36.796811 -2.676724 -0.118081 17.215675 1.197969 5.276963 -5.976484 0.428300 -0.000000 -18.891200 11.151262 -2.556331 -2.172788 1.646053 -14.952666 -16.095310 -0.559190 -3.212811 52.328599 -0.405316 8.085486 21.196902 4.091500 0.000000 -78.408900 -1.080303 -0.196241 -2.183470 -1.244702 -0.278521 -3.525113 -7.490469 -0.406687 0.302149 11.218001 -2.689486 -5.913276 -4.304586 -0.345452 0.418174 0.000000 0.000000 0.000000 -5.081867 9.471589 2.114540 -68.099885 8.836312 9.214332 -3.556822 -21.099782 -0.006538 -1.570506 4.642264 -0.061223 -0.069874 -0.037861 -0.000000 0.000000 0.000000 0.000000 0.000000 0.000000 0.000000 19.731122 1.560680 0.860746 64.375155 15.257126 6.264615 2.810512 35.179720 0.013574 0.963494 8.333442 0.068005 0.061840 -0.169489 -0.000000 0.000000 0.000000 0.000000 0.000000 0.000000 0.000000 
-10.258323 16.859474 -1.928894 -6.257039 82.537593 7.748673 -9.209185 1.345555 3.809631 -17.551893 -5.176522 -36.611388 -2.613201 0.038093 18.777505 1.236054 5.525732 -6.010619 0.430500 -0.000000 -16.372400 11.203784 -2.300495 -2.148501 1.093439 -14.738366 -18.401413 -0.812334 -3.389814 56.014305 -0.672916 5.735930 21.445309 3.133500 0.000000 -74.687200 -1.806106 -0.380449 -2.278163 -1.377288 -0.416372 -3.533842 -7.534358 -0.549950 0.305854 11.412656 -2.808254 -5.947586 -4.317893 -0.346246 0.407050 0.000000 0.000000 0.000000 -4.867051 9.372688 2.108737 -67.868347 8.764603 9.787618 -3.570207 -21.709470 -0.006621 -1.659095 4.599444 -0.064210 -0.071064 -0.038176 -0.000000 0.000000 0.000000 0.000000 0.000000 0.000000 0.000000 20.028808 1.352360 0.831016 64.868523 14.826533 5.997970 2.808518 34.663378 0.013321 0.919488 8.330141 0.064699 0.061415 -0.166592 -0.000000 0.000000 0.000000 0.000000 0.000000 0.000000 0.000000 
-10.036616 16.847572 -1.918156 -2.035117 82.580048 11.948781 -9.226426 1.350087 3.761345 -18.095296 -5.479290 -36.313392 -2.571773 0.155647 20.119988 1.273724 5.742246 -6.201719 0.408900 -0.000000 -14.293100 11.257129 -2.047936 -2.095085 0.635344 -14.317548 -20.733075 -1.037545 -3.582203 59.396827 -0.932876 3.101042 21.010681 1.960700 0.000001 -71.047200 -2.501018 -0.577920 -2.330922 -1.502949 -0.567340 -3.533243 -7.572583 -0.705654 0.308447 11.575954 -2.910532 -5.995941 -4.331242 -0.346768 0.390748 0.000000 0.000000 0.000000 -4.680067 9.286961 2.113666 -67.591808 8.523445 10.327062 -3.580357 -22.240092 -0.006512 -1.615910 4.504576 -0.061091 -0.072269 -0.037447 -0.000000 0.000000 0.000000 0.000000 0.000000 0.000000 0.000000 20.290525 1.154388 0.800803 65.389527 14.371958 5.624165 2.796206 34.110513 0.012823 0.749156 8.350627 0.052190 0.061549 -0.164120 -0.000000 0.000000 0.000000 0.000000 0.000000 0.000000 0.000000 
-9.819840 16.841428 -1.908799 1.745165 82.617875 15.708683 -9.211740 1.337552 3.662277 -18.652738 -5.647880 -35.863630 -2.550488 0.234624 21.214893 1.312916 5.925604 -6.577662 0.357800 0.000000 -12.703200 11.319056 -1.797750 -2.016002 0.289397 -13.703506 -23.040159 -1.241749 -3.781762 62.407008 -1.181185 0.366224 19.952190 0.734000 -0.000000 -67.608401 -3.105732 -0.774331 -2.329381 -1.611772 -0.721203 -3.522710 -7.606103 -0.863059 0.305347 11.698307 -2.993887 -6.050225 -4.344841 -0.347108 0.371768 0.000000 0.000000 0.000000 -4.535674 9.191000 2.127521 -67.288076 8.141192 10.773267 -3.585447 -22.689132 -0.006213 -1.430347 4.366798 -0.052067 -0.073386 -0.035734 -0.000000 0.000000 0.000000 0.000000 0.000000 0.000000 0.000000 20.504009 0.971655 0.774314 65.922321 13.889085 5.157098 2.775957 33.523627 0.012108 0.459539 8.387134 0.030678 0.062281 -0.161936 -0.000000 0.000000 0.000000 0.000000 0.000000 0.000000 0.000000 
-9.607431 16.841703 -1.901727 4.945834 82.640179 18.874652 -9.168531 1.317222 3.515360 -19.191980 -5.692644 -35.222761 -2.548147 0.276808 22.031316 1.356152 6.085758 -7.135268 0.276100 0.000000 -11.580700 11.387223 -1.545676 -1.916681 0.039817 -12.918246 -25.272575 -1.426522 -3.976691 64.982844 -1.412244 -2.278959 18.359842 -0.392500 0.000000 -64.405900 -3.603376 -0.958102 -2.268307 -1.701218 -0.867856 -3.502357 -7.635349 -1.011900 0.294945 11.778017 -3.050273 -6.103216 -4.358897 -0.347341 0.352223 0.000000 0.000000 0.000000 -4.431200 9.083079 2.148477 -66.976205 7.629289 11.098651 -3.585675 -23.044091 -0.005757 -1.102598 4.193745 -0.037839 -0.074410 -0.033106 -0.000000 0.000000 0.000000 0.000000 0.000000 0.000000 0.000000 20.666253 0.815490 0.753237 66.453887 13.364162 4.603268 2.749625 32.914106 0.011218 0.077856 8.424450 0.001964 0.063435 -0.159850 -0.000000 0.000000 0.000000 0.000000 0.000000 0.000000 0.000000 
-9.398729 16.848657 -1.897420 7.584279 82.641597 21.447872 -9.104207 1.294281 3.323827 -19.699084 -5.631088 -34.351208 -2.563326 0.284192 22.537767 1.404764 6.236194 -7.839197 0.167500 -0.000000 -10.878700 11.454887 -1.290172 -1.804665 -0.148960 -11.993402 -27.378493 -1.587131 -4.156948 67.069981 -1.617919 -4.661499 16.343673 -1.298100 -0.000000 -61.384700 -4.003331 -1.123158 -2.143185 -1.773227 -1.000818 -3.469459 -7.660120 -1.145257 0.286510 11.822431 -3.106347 -6.160856 -4.373140 -0.347382 0.330524 0.000000 0.000000 0.000000 -4.355146 8.983831 2.171069 -66.672008 6.973242 11.305279 -3.582263 -23.287998 -0.005203 -0.644607 3.992204 -0.019810 -0.075388 -0.029669 -0.000000 0.000000 0.000000 0.000000 0.000000 0.000000 0.000000 20.791401 0.659007 0.737380 66.961930 12.831885 4.029654 2.720734 32.273410 0.010208 -0.376258 8.450237 -0.032355 0.065046 -0.157603 -0.000000 0.000000 0.000000 0.000000 0.000000 0.000000 0.000000 
-9.192340 16.862081 -1.897120 9.465097 82.623745 23.234779 -9.035853 1.273128 3.099495 -20.130533 -5.468155 -33.269929 -2.590864 0.262813 22.747892 1.455522 6.363921 -8.646897 0.036400 0.000000 -10.520600 11.506851 -1.036203 -1.678086 -0.260584 -10.946881 -29.330617 -1.715350 -4.308353 68.620118 -1.790208 -6.661571 14.046112 -1.921600 0.000000 -58.552900 -4.278197 -1.261138 -1.972799 -1.822451 -1.114472 -3.430645 -7.680979 -1.258089 0.270708 11.825648 -3.132122 -6.204703 -4.387677 -0.347472 0.312379 0.000000 0.000000 0.000000 -4.316363 8.867494 2.194991 -66.386905 6.240950 11.371278 -3.574394 -23.457123 -0.004615 -0.083582 3.774139 0.000020 -0.076232 -0.025660 -0.000000 0.000000 0.000000 0.000000 0.000000 0.000000 0.000000 20.864818 0.535269 0.728554 67.438790 12.239318 3.409290 2.692586 31.631114 0.009175 -0.839828 8.442873 -0.067276 0.066696 -0.155008 -0.000000 0.000000 0.000000 0.000000 0.000000 0.000000 0.000000 
-8.987143 16.881401 -1.901023 10.683754 82.593370 24.327334 -8.973201 1.253521 2.851306 -20.480077 -5.228506 -31.974399 -2.626621 0.215693 22.655337 1.506112 6.475381 -9.489445 -0.106600 -0.000000 -10.434400 11.534425 -0.789191 -1.541827 -0.322016 -9.818009 -31.098411 -1.800645 -4.425048 69.602577 -1.919521 -8.185630 11.610063 -2.249500 0.000000 -55.843600 -4.444869 -1.373436 -1.765943 -1.851704 -1.209286 -3.384763 -7.697720 -1.350604 0.259247 11.798531 -3.164322 -6.244143 -4.401826 -0.347504 0.295454 0.000000 0.000000 0.000000 -4.304735 8.755496 2.214083 -66.127832 5.430869 11.325060 -3.563139 -23.560797 -0.004062 0.546945 3.546658 0.019650 -0.076978 -0.021267 -0.000000 0.000000 0.000000 0.000000 0.000000 0.000000 0.000000 20.905017 0.404861 0.725004 67.861942 11.630038 2.825177 2.670119 30.975062 0.008207 -1.283887 8.390612 -0.100201 0.068459 -0.151809 -0.000000 0.000000 0.000000 0.000000 0.000000 0.000000 0.000000 
-8.781806 16.905691 -1.909392 11.255283 82.560462 24.747412 -8.926051 1.235445 2.592633 -20.732195 -4.933660 -30.494377 -2.664975 0.147572 22.280067 1.552282 6.565934 -10.301558 -0.250400 0.000000 -10.538001 11.529196 -0.555921 -1.396385 -0.333601 -8.642074 -32.671461 -1.834311 -4.501417 70.000242 -1.999540 -9.199257 9.193161 -2.322100 0.000000 -53.320300 -4.503682 -1.461686 -1.542485 -1.860657 -1.287281 -3.335201 -7.710783 -1.425059 0.254237 11.746227 -3.210457 -6.277290 -4.415139 -0.347524 0.280758 0.000000 0.000000 0.000000 -4.319132 8.647323 2.225491 -65.895207 4.579842 11.189824 -3.548691 -23.637649 -0.003589 1.206072 3.318729 0.037677 -0.077629 -0.016721 -0.000000 0.000000 0.000000 0.000000 0.000000 0.000000 0.000000 20.917166 0.259597 0.725545 68.219435 11.002604 2.306900 2.657468 30.314914 0.007396 -1.661493 8.279917 -0.126827 0.070183 -0.147841 -0.000000 0.000000 0.000000 0.000000 0.000000 0.000000 0.000000 
